<?xml version="1.0" encoding="UTF-8" standalone="no"?>
<!-- Created with Inkscape (http://www.inkscape.org/) -->

<svg
   version="1.0"
   width="48"
   height="48"
   viewBox="0 0 151.127 180.225"
   id="Layer_1"
   xml:space="preserve"
   style="overflow:visible"
   sodipodi:docname="VASSAL-gear.svg"
   inkscape:version="1.4.3 (0d15f75042, 2025-12-25)"
   inkscape:export-filename="VASSAL-gear.png"
   inkscape:export-xdpi="1200"
   inkscape:export-ydpi="1200"
   xmlns:inkscape="http://www.inkscape.org/namespaces/inkscape"
   xmlns:sodipodi="http://sodipodi.sourceforge.net/DTD/sodipodi-0.dtd"
   xmlns="http://www.w3.org/2000/svg"
   xmlns:svg="http://www.w3.org/2000/svg"><sodipodi:namedview
   id="namedview1"
   pagecolor="#ffffff"
   bordercolor="#666666"
   borderopacity="1.0"
   inkscape:showpageshadow="2"
   inkscape:pageopacity="0.0"
   inkscape:pagecheckerboard="0"
   inkscape:deskcolor="#d1d1d1"
   inkscape:zoom="8.5515726"
   inkscape:cx="1.6955946"
   inkscape:cy="40.986613"
   inkscape:window-width="2560"
   inkscape:window-height="1412"
   inkscape:window-x="0"
   inkscape:window-y="0"
   inkscape:window-maximized="1"
   inkscape:current-layer="Layer_1" /><defs
   id="defs2572" />
<g
   id="Layer_1_2_">
</g>
<g
   id="Layer_2">
	<g
   id="g2538">
		
			<linearGradient
   x1="69.4375"
   y1="171.4016"
   x2="133.43671"
   y2="66.069901"
   id="XMLID_4_"
   gradientUnits="userSpaceOnUse"
   gradientTransform="matrix(1,0,0,-1,0,178.2251)">
			<stop
   id="stop2541"
   style="stop-color:#ddedb6;stop-opacity:1"
   offset="0" />
			<stop
   id="stop2543"
   style="stop-color:#1b2600;stop-opacity:1"
   offset="1" />
		</linearGradient>
		<polygon
   points="85.97,105.295 64.872,68.752 85.97,32.212 128.162,32.212 149.259,68.752 128.162,105.295 85.97,105.295 "
   id="polygon2545"
   style="fill:url(#XMLID_4_);stroke:#1b2600;stroke-width:3.23709989" />
		
			<linearGradient
   x1="6.8662"
   y1="135.8284"
   x2="68.199997"
   y2="31.8272"
   id="XMLID_5_"
   gradientUnits="userSpaceOnUse"
   gradientTransform="matrix(1,0,0,-1,0,178.2251)">
			<stop
   id="stop2548"
   style="stop-color:#ddedb6;stop-opacity:1"
   offset="0" />
			<stop
   id="stop2550"
   style="stop-color:#1b2600;stop-opacity:1"
   offset="1" />
		</linearGradient>
		<polygon
   points="22.966,142.011 1.868,105.469 22.966,68.93 65.159,68.93 86.256,105.469 65.159,142.011 22.966,142.011 "
   id="polygon2552"
   style="fill:url(#XMLID_5_);stroke:#1b2600;stroke-width:3.23709989" />
		
			<linearGradient
   x1="73.212898"
   y1="96.173103"
   x2="131.87939"
   y2="-7.8260002"
   id="XMLID_6_"
   gradientUnits="userSpaceOnUse"
   gradientTransform="matrix(1,0,0,-1,0,178.2251)">
			<stop
   id="stop2555"
   style="stop-color:#ddedb6;stop-opacity:1"
   offset="0" />
			<stop
   id="stop2557"
   style="stop-color:#1b2600;stop-opacity:1"
   offset="1" />
		</linearGradient>
		<polygon
   points="85.97,178.606 64.872,142.065 85.97,105.524 128.162,105.524 149.259,142.065 128.162,178.606 85.97,178.606 "
   id="polygon2559"
   style="fill:url(#XMLID_6_);stroke:#1b2600;stroke-width:3.23709989" />
	</g>
</g>
<g
   id="Layer_4">
</g>
<g
   id="Layer_3">
	<path
   d="M 32.156,47.938 L 92.724,152.99 L 86.046,159.932 L 88.566,165.565 L 147.449,148.11 L 145.226,140.217 L 137.035,140.147 L 137.109,14.33 L 146.765,8.986 L 144.624,1.698 L 112.083,11.128 L 114.407,18.965 L 124.731,17.63 C 124.731,17.63 124.731,108.876 124.731,121.786 C 124.731,134.693 123.218,137.719 123.218,137.719 C 122.206,136.645 120.272,134.756 114.114,124.139 C 110.056,117.141 64.202,37.529 64.202,37.529 L 72.803,30.689 L 70.354,23.564 L 15.387,42.472 L 18.034,50.202 L 32.156,47.938 z"
   id="path2563"
   style="fill:#453500" />
	<path
   d="M 27.49,46.604 L 88.055,151.658 L 81.378,158.6 L 83.899,164.233 L 142.78,146.778 L 140.557,138.885 L 132.367,138.815 L 132.442,13.518 L 143.546,7.847 L 141.235,0 L 107.417,9.796 L 109.741,17.633 L 120.065,16.298 C 120.065,16.298 120.065,107.544 120.065,120.454 C 120.065,133.361 118.553,136.386 118.553,136.386 C 117.54,135.312 115.606,133.423 109.449,122.806 C 105.391,115.808 59.621,36.407 59.621,36.407 L 68.883,29.777 L 66.237,22.049 L 10.72,41.139 L 13.367,48.869 L 27.49,46.604 z"
   id="path2565"
   style="fill:#ffcc00" />
	<polygon
   points="107.362,139.497 96.334,146.543 37.127,44.809 43.028,41.464 50.688,40.278 107.362,139.497 "
   id="polygon2567"
   style="fill:#ecb500" />
	<polygon
   points="112.569,141.029 101.541,148.075 42.334,46.341 48.235,42.996 55.896,41.811 112.569,141.029 "
   id="polygon2569"
   style="fill:#ffcc00" />
</g>
<g
   id="g2"
   transform="matrix(3.2127453,0,0,3.2127453,579.44496,-476.06649)"><g
     id="g1"><path
       id="path3"
       d="m -169.20247,188.25953 c -4.38071,0 -7.94336,-3.56335 -7.94336,-7.94308 0,-4.37957 3.56265,-7.94309 7.94336,-7.94309 4.37946,0 7.94243,3.56352 7.94243,7.94309 0,4.37973 -3.56297,7.94308 -7.94243,7.94308 z m 12.79875,-3.6121 c 0.34464,-1.01428 0.56891,-2.07899 0.66079,-3.17608 l -2.19019,-1.0609 c 0.002,-0.35501 -0.0103,-0.7127 -0.0423,-1.07197 -0.009,-0.12425 -0.0256,-0.24616 -0.0396,-0.36976 l 2.06037,-1.30208 c -0.21427,-1.08153 -0.55493,-2.11469 -1.00788,-3.08043 l -2.43373,0.17661 c -0.23737,-0.42157 -0.50269,-0.8267 -0.79093,-1.21026 l 1.13262,-2.15433 c -0.71548,-0.81375 -1.52809,-1.53983 -2.4162,-2.16246 l -2.0179,1.36781 c -0.41337,-0.24364 -0.84302,-0.4625 -1.28838,-0.65412 l -0.0957,-2.43171 c -1.014,-0.34448 -2.07953,-0.56913 -3.17515,-0.66346 l -1.06138,2.19216 c -0.35469,-0.003 -0.71047,0.0108 -1.07149,0.0417 -0.12518,0.0109 -0.24757,0.0266 -0.37002,0.0413 l -1.30012,-2.06266 c -1.0829,0.21629 -2.11617,0.55706 -3.08294,1.00925 l 0.17726,2.43351 c -0.42107,0.23818 -0.82664,0.50236 -1.20922,0.79181 l -2.15586,-1.13345 c -0.81523,0.71696 -1.5413,1.52875 -2.16115,2.41817 l 1.36902,2.01675 c -0.24512,0.41381 -0.46584,0.84318 -0.65582,1.28718 l -2.43291,0.0955 c -0.34437,1.01427 -0.5676,2.07784 -0.66079,3.1764 l 2.1914,1.06073 c -0.002,0.35534 0.009,0.71254 0.0401,1.07214 0.0111,0.12425 0.0266,0.24567 0.0431,0.36954 l -2.06267,1.3011 c 0.2169,1.08175 0.55603,2.11491 1.00887,3.08081 l 2.43269,-0.17628 c 0.23857,0.42124 0.50274,0.82468 0.79116,1.20961 l -1.13312,2.15367 c 0.71565,0.81659 1.52979,1.54212 2.41751,2.16295 l 2.01692,-1.36803 c 0.41446,0.24599 0.84449,0.46556 1.28838,0.65549 l 0.0958,2.43225 c 1.014,0.34361 2.07653,0.56875 3.17362,0.66144 l 1.06384,-2.19133 c 0.3536,0.002 0.71205,-0.01 1.07187,-0.0408 0.12354,-0.01 0.24594,-0.0271 0.36719,-0.0426 l 1.3011,2.06436 c 1.08437,-0.21673 2.11622,-0.55624 3.08343,-1.00838 l -0.1759,-2.43438 c 0.41938,-0.23966 0.82369,-0.50318 1.20923,-0.79143 l 2.15454,1.13291 c 0.81375,-0.71697 1.53961,-1.52826 2.16093,-2.41736 l -1.3665,-2.01691 c 0.24272,-0.41447 0.46196,-0.84449 0.65467,-1.28898 l 2.43138,-0.0949"
       style="fill:#616e7d;fill-opacity:1;fill-rule:nonzero;stroke:none;stroke-width:0.00545924" /></g><path
     id="path4"
     d="m -163.65228,179.83172 c 0.26663,3.06727 -2.00119,5.7696 -5.06667,6.03574 -3.06536,0.26826 -5.7685,-2.0024 -6.03633,-5.067 -0.26527,-3.06574 2.00278,-5.7685 5.06797,-6.03464 3.06673,-0.26783 5.76988,2.00168 6.03503,5.0659 z m -12.92595,0.48473 c 0,4.06653 3.30764,7.37543 7.37576,7.37543 4.06702,0 7.37461,-3.3089 7.37461,-7.37543 0,-4.06686 -3.30759,-7.37593 -7.37461,-7.37593 -4.06812,0 -7.37576,3.30907 -7.37576,7.37593"
     style="fill:#616e7d;fill-opacity:1;fill-rule:nonzero;stroke:none;stroke-width:0.00545924" /><path
     id="path5"
     d="m -145.49053,188.98031 c 1.08431,1.83333 0.47741,4.19931 -1.35597,5.284 -1.85734,1.09769 -4.25684,0.46087 -5.32336,-1.42486 -1.00008,-1.77109 -0.40043,-4.10305 1.32938,-5.17383 1.84211,-1.14054 4.25187,-0.53855 5.34995,1.31469 z m -9.65025,1.93607 c -0.0728,3.48523 2.70331,6.38016 6.188,6.45299 3.48517,0.0733 6.37977,-2.70331 6.45265,-6.18767 0.0737,-3.48502 -2.70199,-6.37994 -6.18848,-6.45299 -3.48507,-0.073 -6.37961,2.70265 -6.45217,6.18767"
     style="fill:#616e7d;fill-opacity:1;fill-rule:nonzero;stroke:none;stroke-width:0.00545924" /><path
     id="path6"
     d="m -148.9589,197.64293 c -3.63552,-0.076 -6.5316,-3.09616 -6.45495,-6.73234 0.0752,-3.63552 3.09484,-6.53176 6.73168,-6.45544 3.63569,0.076 6.53111,3.09615 6.4561,6.73234 -0.0767,3.63585 -3.09583,6.53209 -6.73283,6.45544 z m 10.297,-5.59179 c 0.0715,-0.73547 0.0652,-1.4764 -0.0226,-2.21782 l -1.71988,-0.4113 c -0.0904,-0.45082 -0.2181,-0.9005 -0.37898,-1.34111 l 1.26032,-1.24357 c -0.1515,-0.33454 -0.32248,-0.66444 -0.51377,-0.98643 -0.18917,-0.32083 -0.39552,-0.62792 -0.61635,-0.92244 l -1.69673,0.50694 c -0.30845,-0.35578 -0.64032,-0.6824 -0.99489,-0.97698 l 0.46971,-1.70547 c -0.60729,-0.43379 -1.25421,-0.79721 -1.93268,-1.0883 l -1.21834,1.28854 c -0.43892,-0.15204 -0.88942,-0.26766 -1.34587,-0.34709 l -0.45033,-1.71623 c -0.73361,-0.0711 -1.47585,-0.0632 -2.21328,0.0274 l -0.41485,1.71906 c -0.45143,0.0875 -0.89783,0.21471 -1.33812,0.37811 l -1.24476,-1.25929 c -0.3317,0.14997 -0.66455,0.31882 -0.98605,0.5111 -0.3216,0.18949 -0.6289,0.3965 -0.9225,0.61471 l 0.5052,1.69973 c -0.35452,0.30889 -0.68126,0.64015 -0.976,0.99397 l -1.70547,-0.46813 c -0.43483,0.6051 -0.79727,1.25251 -1.08819,1.92935 l 1.28723,1.21948 c -0.15182,0.43942 -0.264,0.88991 -0.34447,1.34636 l -1.71442,0.44995 c -0.0725,0.73389 -0.0651,1.47629 0.023,2.21618 l 1.72217,0.40972 c 0.0881,0.45328 0.21411,0.9005 0.37505,1.34324 l -1.25917,1.24307 c 0.15067,0.33487 0.31996,0.66313 0.51147,0.98343 0.1913,0.32313 0.39678,0.63158 0.61619,0.9243 l 1.69902,-0.50569 c 0.30763,0.35453 0.64201,0.68093 0.99402,0.97519 l -0.46715,1.70743 c 0.60625,0.43302 1.25154,0.79814 1.92766,1.0854 l 1.22102,-1.28625 c 0.44023,0.15313 0.88641,0.26729 1.34701,0.34546 l 0.44886,1.7159 c 0.73246,0.0695 1.47618,0.0649 2.21596,-0.0236 l 0.40966,-1.72135 c 0.45262,-0.0873 0.90034,-0.21477 1.34057,-0.37778 l 1.24896,1.25993 c 0.33165,-0.14914 0.66063,-0.32013 0.98223,-0.51082 0.32248,-0.19025 0.62743,-0.39661 0.92201,-0.61766 l -0.50503,-1.69673 c 0.35485,-0.30828 0.68142,-0.64162 0.97584,-0.99434 l 1.70677,0.46769 c 0.43385,-0.60614 0.79875,-1.25339 1.0859,-1.93001 l -1.28723,-1.22095 c 0.15067,-0.43653 0.26783,-0.88582 0.34693,-1.34423 l 1.71442,-0.44804"
     style="fill:#616e7d;fill-opacity:1;fill-rule:nonzero;stroke:none;stroke-width:0.00545924" /><path
     id="path7"
     d="m -161.82786,180.31645 c 0,4.06653 -3.30759,7.37543 -7.37461,7.37543 -4.06812,0 -7.37576,-3.3089 -7.37576,-7.37543 0,-4.06686 3.30764,-7.37593 7.37576,-7.37593 4.06702,0 7.37461,3.30907 7.37461,7.37593 z m -15.31797,0 c 0,4.37973 3.56265,7.94308 7.94336,7.94308 4.37946,0 7.94243,-3.56335 7.94243,-7.94308 0,-4.37957 -3.56297,-7.94309 -7.94243,-7.94309 -4.38071,0 -7.94336,3.56352 -7.94336,7.94309"
     style="fill:#aad4c8;fill-opacity:1;fill-rule:nonzero;stroke:none;stroke-width:0.00545924" /><path
     id="path8"
     d="m -142.50013,191.1817 c -0.0729,3.48436 -2.96748,6.26098 -6.45265,6.18767 -3.48469,-0.0728 -6.26082,-2.96776 -6.188,-6.45299 0.0726,-3.48502 2.9671,-6.26066 6.45217,-6.18767 3.48649,0.073 6.26218,2.96797 6.18848,6.45299 z m -12.91372,-0.27111 c -0.0767,3.63618 2.81943,6.65635 6.45495,6.73234 3.637,0.0767 6.65618,-2.81959 6.73283,-6.45544 0.075,-3.63619 -2.82041,-6.65635 -6.4561,-6.73234 -3.63684,-0.0763 -6.65651,2.81992 -6.73168,6.45544"
     style="fill:#82bfab;fill-opacity:1;fill-rule:nonzero;stroke:none;stroke-width:0.00545924" /></g></svg>
